<mxfile host="app.diagrams.net" agent="Mozilla/5.0 (Windows NT 10.0; Win64; x64) AppleWebKit/537.36 (KHTML, like Gecko) Chrome/126.0.0.0 Safari/537.36 OPR/112.0.0.0" version="24.7.14">
  <diagram id="R2lEEEUBdFMjLlhIrx00" name="Page-1">
    <mxGraphModel dx="643" dy="743" grid="1" gridSize="10" guides="1" tooltips="1" connect="1" arrows="1" fold="1" page="1" pageScale="1" pageWidth="850" pageHeight="1100" math="0" shadow="0" extFonts="Permanent Marker^https://fonts.googleapis.com/css?family=Permanent+Marker">
      <root>
        <mxCell id="0" />
        <mxCell id="1" parent="0" />
        <mxCell id="keiCmi9gTDB518gkM9KE-36" style="edgeStyle=orthogonalEdgeStyle;rounded=0;orthogonalLoop=1;jettySize=auto;html=1;exitX=0.5;exitY=1;exitDx=0;exitDy=0;" edge="1" parent="1" source="keiCmi9gTDB518gkM9KE-1" target="keiCmi9gTDB518gkM9KE-31">
          <mxGeometry relative="1" as="geometry" />
        </mxCell>
        <mxCell id="keiCmi9gTDB518gkM9KE-37" value="&lt;font style=&quot;font-size: 15px;&quot;&gt;Faz&lt;/font&gt;" style="edgeLabel;html=1;align=center;verticalAlign=middle;resizable=0;points=[];" vertex="1" connectable="0" parent="keiCmi9gTDB518gkM9KE-36">
          <mxGeometry x="0.0375" y="1" relative="1" as="geometry">
            <mxPoint as="offset" />
          </mxGeometry>
        </mxCell>
        <mxCell id="keiCmi9gTDB518gkM9KE-92" style="edgeStyle=orthogonalEdgeStyle;rounded=0;orthogonalLoop=1;jettySize=auto;html=1;exitX=0.5;exitY=0;exitDx=0;exitDy=0;entryX=0;entryY=0.5;entryDx=0;entryDy=0;" edge="1" parent="1" source="keiCmi9gTDB518gkM9KE-1" target="keiCmi9gTDB518gkM9KE-85">
          <mxGeometry relative="1" as="geometry" />
        </mxCell>
        <mxCell id="keiCmi9gTDB518gkM9KE-119" value="&lt;font style=&quot;font-size: 15px;&quot;&gt;Faz&lt;/font&gt;" style="edgeLabel;html=1;align=center;verticalAlign=middle;resizable=0;points=[];" vertex="1" connectable="0" parent="keiCmi9gTDB518gkM9KE-92">
          <mxGeometry x="0.1442" y="3" relative="1" as="geometry">
            <mxPoint as="offset" />
          </mxGeometry>
        </mxCell>
        <mxCell id="keiCmi9gTDB518gkM9KE-1" value="Usuário" style="rounded=0;whiteSpace=wrap;html=1;" vertex="1" parent="1">
          <mxGeometry x="110" y="220" width="130" height="70" as="geometry" />
        </mxCell>
        <mxCell id="keiCmi9gTDB518gkM9KE-49" style="edgeStyle=orthogonalEdgeStyle;rounded=0;orthogonalLoop=1;jettySize=auto;html=1;exitX=0.5;exitY=1;exitDx=0;exitDy=0;entryX=0.5;entryY=0;entryDx=0;entryDy=0;" edge="1" parent="1" source="keiCmi9gTDB518gkM9KE-2" target="keiCmi9gTDB518gkM9KE-43">
          <mxGeometry relative="1" as="geometry" />
        </mxCell>
        <mxCell id="keiCmi9gTDB518gkM9KE-50" value="&lt;font style=&quot;font-size: 15px;&quot;&gt;Pertence&lt;/font&gt;" style="edgeLabel;html=1;align=center;verticalAlign=middle;resizable=0;points=[];" vertex="1" connectable="0" parent="keiCmi9gTDB518gkM9KE-49">
          <mxGeometry x="0.025" y="-1" relative="1" as="geometry">
            <mxPoint as="offset" />
          </mxGeometry>
        </mxCell>
        <mxCell id="keiCmi9gTDB518gkM9KE-93" style="edgeStyle=orthogonalEdgeStyle;rounded=0;orthogonalLoop=1;jettySize=auto;html=1;exitX=0.5;exitY=0;exitDx=0;exitDy=0;entryX=1;entryY=0.5;entryDx=0;entryDy=0;" edge="1" parent="1" source="keiCmi9gTDB518gkM9KE-2" target="keiCmi9gTDB518gkM9KE-85">
          <mxGeometry relative="1" as="geometry" />
        </mxCell>
        <mxCell id="keiCmi9gTDB518gkM9KE-120" value="&lt;font style=&quot;font-size: 15px;&quot;&gt;Possui&lt;/font&gt;" style="edgeLabel;html=1;align=center;verticalAlign=middle;resizable=0;points=[];" vertex="1" connectable="0" parent="keiCmi9gTDB518gkM9KE-93">
          <mxGeometry x="0.182" y="-2" relative="1" as="geometry">
            <mxPoint as="offset" />
          </mxGeometry>
        </mxCell>
        <mxCell id="keiCmi9gTDB518gkM9KE-2" value="Quizzes" style="rounded=0;whiteSpace=wrap;html=1;" vertex="1" parent="1">
          <mxGeometry x="587.5" y="220" width="130" height="70" as="geometry" />
        </mxCell>
        <mxCell id="keiCmi9gTDB518gkM9KE-87" style="edgeStyle=orthogonalEdgeStyle;rounded=0;orthogonalLoop=1;jettySize=auto;html=1;exitX=0.5;exitY=0;exitDx=0;exitDy=0;entryX=0.25;entryY=1;entryDx=0;entryDy=0;" edge="1" parent="1" source="keiCmi9gTDB518gkM9KE-19" target="keiCmi9gTDB518gkM9KE-1">
          <mxGeometry relative="1" as="geometry" />
        </mxCell>
        <mxCell id="keiCmi9gTDB518gkM9KE-19" value="ID&lt;br&gt;Usu" style="ellipse;whiteSpace=wrap;html=1;aspect=fixed;" vertex="1" parent="1">
          <mxGeometry x="100" y="350" width="40" height="40" as="geometry" />
        </mxCell>
        <mxCell id="keiCmi9gTDB518gkM9KE-22" style="edgeStyle=orthogonalEdgeStyle;rounded=0;orthogonalLoop=1;jettySize=auto;html=1;exitX=1;exitY=0.5;exitDx=0;exitDy=0;entryX=0;entryY=0.25;entryDx=0;entryDy=0;" edge="1" parent="1" source="keiCmi9gTDB518gkM9KE-21" target="keiCmi9gTDB518gkM9KE-1">
          <mxGeometry relative="1" as="geometry" />
        </mxCell>
        <mxCell id="keiCmi9gTDB518gkM9KE-21" value="Nome" style="ellipse;whiteSpace=wrap;html=1;aspect=fixed;" vertex="1" parent="1">
          <mxGeometry x="10" y="160" width="40" height="40" as="geometry" />
        </mxCell>
        <mxCell id="keiCmi9gTDB518gkM9KE-24" style="edgeStyle=orthogonalEdgeStyle;rounded=0;orthogonalLoop=1;jettySize=auto;html=1;entryX=0;entryY=0.5;entryDx=0;entryDy=0;" edge="1" parent="1" source="keiCmi9gTDB518gkM9KE-23" target="keiCmi9gTDB518gkM9KE-1">
          <mxGeometry relative="1" as="geometry" />
        </mxCell>
        <mxCell id="keiCmi9gTDB518gkM9KE-23" value="E-mail" style="ellipse;whiteSpace=wrap;html=1;aspect=fixed;" vertex="1" parent="1">
          <mxGeometry x="10" y="235" width="40" height="40" as="geometry" />
        </mxCell>
        <mxCell id="keiCmi9gTDB518gkM9KE-26" style="edgeStyle=orthogonalEdgeStyle;rounded=0;orthogonalLoop=1;jettySize=auto;html=1;entryX=0;entryY=0.75;entryDx=0;entryDy=0;" edge="1" parent="1" source="keiCmi9gTDB518gkM9KE-25" target="keiCmi9gTDB518gkM9KE-1">
          <mxGeometry relative="1" as="geometry" />
        </mxCell>
        <mxCell id="keiCmi9gTDB518gkM9KE-25" value="Senha" style="ellipse;whiteSpace=wrap;html=1;aspect=fixed;" vertex="1" parent="1">
          <mxGeometry x="10" y="310" width="40" height="40" as="geometry" />
        </mxCell>
        <mxCell id="keiCmi9gTDB518gkM9KE-28" style="edgeStyle=orthogonalEdgeStyle;rounded=0;orthogonalLoop=1;jettySize=auto;html=1;entryX=1;entryY=0;entryDx=0;entryDy=0;" edge="1" parent="1" source="keiCmi9gTDB518gkM9KE-27" target="keiCmi9gTDB518gkM9KE-2">
          <mxGeometry relative="1" as="geometry" />
        </mxCell>
        <mxCell id="keiCmi9gTDB518gkM9KE-27" value="ID&lt;br&gt;Quiz" style="ellipse;whiteSpace=wrap;html=1;aspect=fixed;" vertex="1" parent="1">
          <mxGeometry x="800" y="140" width="40" height="40" as="geometry" />
        </mxCell>
        <mxCell id="keiCmi9gTDB518gkM9KE-30" style="edgeStyle=orthogonalEdgeStyle;rounded=0;orthogonalLoop=1;jettySize=auto;html=1;entryX=1;entryY=0.25;entryDx=0;entryDy=0;" edge="1" parent="1" source="keiCmi9gTDB518gkM9KE-29" target="keiCmi9gTDB518gkM9KE-2">
          <mxGeometry relative="1" as="geometry" />
        </mxCell>
        <mxCell id="keiCmi9gTDB518gkM9KE-29" value="Título" style="ellipse;whiteSpace=wrap;html=1;aspect=fixed;" vertex="1" parent="1">
          <mxGeometry x="800" y="185" width="40" height="40" as="geometry" />
        </mxCell>
        <mxCell id="keiCmi9gTDB518gkM9KE-41" style="edgeStyle=orthogonalEdgeStyle;rounded=0;orthogonalLoop=1;jettySize=auto;html=1;exitX=0.5;exitY=1;exitDx=0;exitDy=0;entryX=0.5;entryY=0;entryDx=0;entryDy=0;" edge="1" parent="1" source="keiCmi9gTDB518gkM9KE-31" target="keiCmi9gTDB518gkM9KE-40">
          <mxGeometry relative="1" as="geometry" />
        </mxCell>
        <mxCell id="keiCmi9gTDB518gkM9KE-42" value="&lt;font style=&quot;font-size: 15px;&quot;&gt;Cria&lt;/font&gt;" style="edgeLabel;html=1;align=center;verticalAlign=middle;resizable=0;points=[];" vertex="1" connectable="0" parent="keiCmi9gTDB518gkM9KE-41">
          <mxGeometry x="0.0667" relative="1" as="geometry">
            <mxPoint as="offset" />
          </mxGeometry>
        </mxCell>
        <mxCell id="keiCmi9gTDB518gkM9KE-31" value="Atividades" style="rounded=0;whiteSpace=wrap;html=1;" vertex="1" parent="1">
          <mxGeometry x="115" y="450" width="120" height="70" as="geometry" />
        </mxCell>
        <mxCell id="keiCmi9gTDB518gkM9KE-33" style="edgeStyle=orthogonalEdgeStyle;rounded=0;orthogonalLoop=1;jettySize=auto;html=1;entryX=0;entryY=0.25;entryDx=0;entryDy=0;" edge="1" parent="1" source="keiCmi9gTDB518gkM9KE-32" target="keiCmi9gTDB518gkM9KE-31">
          <mxGeometry relative="1" as="geometry" />
        </mxCell>
        <mxCell id="keiCmi9gTDB518gkM9KE-32" value="ID&lt;br&gt;ATV" style="ellipse;whiteSpace=wrap;html=1;aspect=fixed;" vertex="1" parent="1">
          <mxGeometry x="10" y="420" width="40" height="40" as="geometry" />
        </mxCell>
        <mxCell id="keiCmi9gTDB518gkM9KE-35" style="edgeStyle=orthogonalEdgeStyle;rounded=0;orthogonalLoop=1;jettySize=auto;html=1;exitX=1;exitY=0.5;exitDx=0;exitDy=0;entryX=0;entryY=0.5;entryDx=0;entryDy=0;" edge="1" parent="1" source="keiCmi9gTDB518gkM9KE-34" target="keiCmi9gTDB518gkM9KE-31">
          <mxGeometry relative="1" as="geometry" />
        </mxCell>
        <mxCell id="keiCmi9gTDB518gkM9KE-34" value="Tempo" style="ellipse;whiteSpace=wrap;html=1;aspect=fixed;" vertex="1" parent="1">
          <mxGeometry x="10" y="465" width="40" height="40" as="geometry" />
        </mxCell>
        <mxCell id="keiCmi9gTDB518gkM9KE-39" style="edgeStyle=orthogonalEdgeStyle;rounded=0;orthogonalLoop=1;jettySize=auto;html=1;entryX=0;entryY=0.75;entryDx=0;entryDy=0;" edge="1" parent="1" source="keiCmi9gTDB518gkM9KE-38" target="keiCmi9gTDB518gkM9KE-31">
          <mxGeometry relative="1" as="geometry" />
        </mxCell>
        <mxCell id="keiCmi9gTDB518gkM9KE-38" value="ID&lt;br&gt;Usu" style="ellipse;whiteSpace=wrap;html=1;aspect=fixed;" vertex="1" parent="1">
          <mxGeometry x="10" y="510" width="40" height="40" as="geometry" />
        </mxCell>
        <mxCell id="keiCmi9gTDB518gkM9KE-40" value="Ranking" style="rounded=0;whiteSpace=wrap;html=1;" vertex="1" parent="1">
          <mxGeometry x="115" y="640" width="120" height="70" as="geometry" />
        </mxCell>
        <mxCell id="keiCmi9gTDB518gkM9KE-51" style="edgeStyle=orthogonalEdgeStyle;rounded=0;orthogonalLoop=1;jettySize=auto;html=1;exitX=0.5;exitY=1;exitDx=0;exitDy=0;entryX=0.5;entryY=0;entryDx=0;entryDy=0;" edge="1" parent="1" source="keiCmi9gTDB518gkM9KE-43" target="keiCmi9gTDB518gkM9KE-44">
          <mxGeometry relative="1" as="geometry" />
        </mxCell>
        <mxCell id="keiCmi9gTDB518gkM9KE-52" value="&lt;font style=&quot;font-size: 15px;&quot;&gt;Possuem&lt;/font&gt;" style="edgeLabel;html=1;align=center;verticalAlign=middle;resizable=0;points=[];" vertex="1" connectable="0" parent="keiCmi9gTDB518gkM9KE-51">
          <mxGeometry x="-0.0763" y="1" relative="1" as="geometry">
            <mxPoint as="offset" />
          </mxGeometry>
        </mxCell>
        <mxCell id="keiCmi9gTDB518gkM9KE-43" value="Perguntas" style="rounded=0;whiteSpace=wrap;html=1;" vertex="1" parent="1">
          <mxGeometry x="592.5" y="450" width="125" height="70" as="geometry" />
        </mxCell>
        <mxCell id="keiCmi9gTDB518gkM9KE-44" value="Respostas" style="rounded=0;whiteSpace=wrap;html=1;" vertex="1" parent="1">
          <mxGeometry x="590" y="641.25" width="125" height="67.5" as="geometry" />
        </mxCell>
        <mxCell id="keiCmi9gTDB518gkM9KE-90" style="edgeStyle=orthogonalEdgeStyle;rounded=0;orthogonalLoop=1;jettySize=auto;html=1;entryX=1;entryY=0.75;entryDx=0;entryDy=0;" edge="1" parent="1" source="keiCmi9gTDB518gkM9KE-54" target="keiCmi9gTDB518gkM9KE-2">
          <mxGeometry relative="1" as="geometry" />
        </mxCell>
        <mxCell id="keiCmi9gTDB518gkM9KE-54" value="Categ" style="ellipse;whiteSpace=wrap;html=1;aspect=fixed;" vertex="1" parent="1">
          <mxGeometry x="800" y="295" width="40" height="40" as="geometry" />
        </mxCell>
        <mxCell id="keiCmi9gTDB518gkM9KE-57" value="Tipo&lt;br&gt;Quiz" style="ellipse;whiteSpace=wrap;html=1;aspect=fixed;" vertex="1" parent="1">
          <mxGeometry x="800" y="240" width="40" height="40" as="geometry" />
        </mxCell>
        <mxCell id="keiCmi9gTDB518gkM9KE-58" style="edgeStyle=orthogonalEdgeStyle;rounded=0;orthogonalLoop=1;jettySize=auto;html=1;entryX=1;entryY=0.5;entryDx=0;entryDy=0;" edge="1" parent="1" source="keiCmi9gTDB518gkM9KE-57" target="keiCmi9gTDB518gkM9KE-2">
          <mxGeometry relative="1" as="geometry" />
        </mxCell>
        <mxCell id="keiCmi9gTDB518gkM9KE-62" style="edgeStyle=orthogonalEdgeStyle;rounded=0;orthogonalLoop=1;jettySize=auto;html=1;entryX=1;entryY=0.25;entryDx=0;entryDy=0;" edge="1" parent="1" source="keiCmi9gTDB518gkM9KE-60" target="keiCmi9gTDB518gkM9KE-43">
          <mxGeometry relative="1" as="geometry" />
        </mxCell>
        <mxCell id="keiCmi9gTDB518gkM9KE-60" value="ID&lt;br&gt;Pergunt" style="ellipse;whiteSpace=wrap;html=1;aspect=fixed;" vertex="1" parent="1">
          <mxGeometry x="790" y="415" width="40" height="40" as="geometry" />
        </mxCell>
        <mxCell id="keiCmi9gTDB518gkM9KE-63" style="edgeStyle=orthogonalEdgeStyle;rounded=0;orthogonalLoop=1;jettySize=auto;html=1;exitX=0;exitY=0.5;exitDx=0;exitDy=0;entryX=1;entryY=0.75;entryDx=0;entryDy=0;" edge="1" parent="1" source="keiCmi9gTDB518gkM9KE-61" target="keiCmi9gTDB518gkM9KE-43">
          <mxGeometry relative="1" as="geometry" />
        </mxCell>
        <mxCell id="keiCmi9gTDB518gkM9KE-61" value="ID&lt;br&gt;Quiz" style="ellipse;whiteSpace=wrap;html=1;aspect=fixed;" vertex="1" parent="1">
          <mxGeometry x="790" y="525" width="40" height="40" as="geometry" />
        </mxCell>
        <mxCell id="keiCmi9gTDB518gkM9KE-65" style="edgeStyle=orthogonalEdgeStyle;rounded=0;orthogonalLoop=1;jettySize=auto;html=1;entryX=1;entryY=0.5;entryDx=0;entryDy=0;" edge="1" parent="1" source="keiCmi9gTDB518gkM9KE-64" target="keiCmi9gTDB518gkM9KE-43">
          <mxGeometry relative="1" as="geometry" />
        </mxCell>
        <mxCell id="keiCmi9gTDB518gkM9KE-64" value="Texto&lt;br&gt;Perg" style="ellipse;whiteSpace=wrap;html=1;aspect=fixed;" vertex="1" parent="1">
          <mxGeometry x="800" y="470" width="40" height="40" as="geometry" />
        </mxCell>
        <mxCell id="keiCmi9gTDB518gkM9KE-67" style="edgeStyle=orthogonalEdgeStyle;rounded=0;orthogonalLoop=1;jettySize=auto;html=1;" edge="1" parent="1" source="keiCmi9gTDB518gkM9KE-66" target="keiCmi9gTDB518gkM9KE-43">
          <mxGeometry relative="1" as="geometry" />
        </mxCell>
        <mxCell id="keiCmi9gTDB518gkM9KE-66" value="Tipo" style="ellipse;whiteSpace=wrap;html=1;aspect=fixed;" vertex="1" parent="1">
          <mxGeometry x="500" y="465" width="40" height="40" as="geometry" />
        </mxCell>
        <mxCell id="keiCmi9gTDB518gkM9KE-69" style="edgeStyle=orthogonalEdgeStyle;rounded=0;orthogonalLoop=1;jettySize=auto;html=1;entryX=1;entryY=1;entryDx=0;entryDy=0;" edge="1" parent="1" source="keiCmi9gTDB518gkM9KE-68" target="keiCmi9gTDB518gkM9KE-44">
          <mxGeometry relative="1" as="geometry" />
        </mxCell>
        <mxCell id="keiCmi9gTDB518gkM9KE-68" value="Correta" style="ellipse;whiteSpace=wrap;html=1;aspect=fixed;" vertex="1" parent="1">
          <mxGeometry x="700" y="750" width="40" height="40" as="geometry" />
        </mxCell>
        <mxCell id="keiCmi9gTDB518gkM9KE-91" style="edgeStyle=orthogonalEdgeStyle;rounded=0;orthogonalLoop=1;jettySize=auto;html=1;exitX=0;exitY=0.5;exitDx=0;exitDy=0;entryX=1;entryY=0.5;entryDx=0;entryDy=0;" edge="1" parent="1" source="keiCmi9gTDB518gkM9KE-70" target="keiCmi9gTDB518gkM9KE-44">
          <mxGeometry relative="1" as="geometry">
            <mxPoint x="840" y="670" as="targetPoint" />
          </mxGeometry>
        </mxCell>
        <mxCell id="keiCmi9gTDB518gkM9KE-70" value="Respos&lt;br&gt;Seleci" style="ellipse;whiteSpace=wrap;html=1;aspect=fixed;" vertex="1" parent="1">
          <mxGeometry x="810" y="655" width="40" height="40" as="geometry" />
        </mxCell>
        <mxCell id="keiCmi9gTDB518gkM9KE-73" style="edgeStyle=orthogonalEdgeStyle;rounded=0;orthogonalLoop=1;jettySize=auto;html=1;entryX=1;entryY=0.25;entryDx=0;entryDy=0;" edge="1" parent="1" source="keiCmi9gTDB518gkM9KE-72" target="keiCmi9gTDB518gkM9KE-44">
          <mxGeometry relative="1" as="geometry" />
        </mxCell>
        <mxCell id="keiCmi9gTDB518gkM9KE-72" value="ID&lt;br&gt;Respo" style="ellipse;whiteSpace=wrap;html=1;aspect=fixed;" vertex="1" parent="1">
          <mxGeometry x="790" y="601.25" width="40" height="40" as="geometry" />
        </mxCell>
        <mxCell id="keiCmi9gTDB518gkM9KE-76" style="edgeStyle=orthogonalEdgeStyle;rounded=0;orthogonalLoop=1;jettySize=auto;html=1;entryX=1;entryY=0.75;entryDx=0;entryDy=0;" edge="1" parent="1" source="keiCmi9gTDB518gkM9KE-75" target="keiCmi9gTDB518gkM9KE-44">
          <mxGeometry relative="1" as="geometry" />
        </mxCell>
        <mxCell id="keiCmi9gTDB518gkM9KE-75" value="ID&lt;br&gt;Pergunt" style="ellipse;whiteSpace=wrap;html=1;aspect=fixed;" vertex="1" parent="1">
          <mxGeometry x="790" y="708.75" width="40" height="40" as="geometry" />
        </mxCell>
        <mxCell id="keiCmi9gTDB518gkM9KE-81" style="edgeStyle=orthogonalEdgeStyle;rounded=0;orthogonalLoop=1;jettySize=auto;html=1;entryX=0;entryY=0.25;entryDx=0;entryDy=0;" edge="1" parent="1" source="keiCmi9gTDB518gkM9KE-77" target="keiCmi9gTDB518gkM9KE-40">
          <mxGeometry relative="1" as="geometry" />
        </mxCell>
        <mxCell id="keiCmi9gTDB518gkM9KE-77" value="ID&lt;br&gt;Rank" style="ellipse;whiteSpace=wrap;html=1;aspect=fixed;" vertex="1" parent="1">
          <mxGeometry x="10" y="610" width="40" height="40" as="geometry" />
        </mxCell>
        <mxCell id="keiCmi9gTDB518gkM9KE-82" style="edgeStyle=orthogonalEdgeStyle;rounded=0;orthogonalLoop=1;jettySize=auto;html=1;entryX=0;entryY=0.5;entryDx=0;entryDy=0;" edge="1" parent="1" source="keiCmi9gTDB518gkM9KE-78" target="keiCmi9gTDB518gkM9KE-40">
          <mxGeometry relative="1" as="geometry" />
        </mxCell>
        <mxCell id="keiCmi9gTDB518gkM9KE-78" value="ID&lt;br&gt;ATV" style="ellipse;whiteSpace=wrap;html=1;aspect=fixed;" vertex="1" parent="1">
          <mxGeometry x="10" y="655" width="40" height="40" as="geometry" />
        </mxCell>
        <mxCell id="keiCmi9gTDB518gkM9KE-84" style="edgeStyle=orthogonalEdgeStyle;rounded=0;orthogonalLoop=1;jettySize=auto;html=1;exitX=0.5;exitY=0;exitDx=0;exitDy=0;entryX=0.5;entryY=1;entryDx=0;entryDy=0;" edge="1" parent="1" source="keiCmi9gTDB518gkM9KE-79" target="keiCmi9gTDB518gkM9KE-40">
          <mxGeometry relative="1" as="geometry" />
        </mxCell>
        <mxCell id="keiCmi9gTDB518gkM9KE-79" value="Ponto&lt;br&gt;Total" style="ellipse;whiteSpace=wrap;html=1;aspect=fixed;" vertex="1" parent="1">
          <mxGeometry x="155" y="750" width="40" height="40" as="geometry" />
        </mxCell>
        <mxCell id="keiCmi9gTDB518gkM9KE-83" style="edgeStyle=orthogonalEdgeStyle;rounded=0;orthogonalLoop=1;jettySize=auto;html=1;entryX=0;entryY=0.75;entryDx=0;entryDy=0;" edge="1" parent="1" source="keiCmi9gTDB518gkM9KE-80" target="keiCmi9gTDB518gkM9KE-40">
          <mxGeometry relative="1" as="geometry" />
        </mxCell>
        <mxCell id="keiCmi9gTDB518gkM9KE-80" value="ID&lt;br&gt;Usu" style="ellipse;whiteSpace=wrap;html=1;aspect=fixed;" vertex="1" parent="1">
          <mxGeometry x="10" y="700" width="40" height="40" as="geometry" />
        </mxCell>
        <mxCell id="keiCmi9gTDB518gkM9KE-85" value="Comentário" style="rounded=0;whiteSpace=wrap;html=1;" vertex="1" parent="1">
          <mxGeometry x="350" y="145" width="120" height="70" as="geometry" />
        </mxCell>
        <mxCell id="keiCmi9gTDB518gkM9KE-94" value="" style="endArrow=none;html=1;rounded=0;exitX=1;exitY=0.5;exitDx=0;exitDy=0;entryX=0;entryY=0.5;entryDx=0;entryDy=0;" edge="1" parent="1" source="keiCmi9gTDB518gkM9KE-1" target="keiCmi9gTDB518gkM9KE-2">
          <mxGeometry width="50" height="50" relative="1" as="geometry">
            <mxPoint x="420" y="450" as="sourcePoint" />
            <mxPoint x="470" y="400" as="targetPoint" />
          </mxGeometry>
        </mxCell>
        <mxCell id="keiCmi9gTDB518gkM9KE-95" value="&lt;span style=&quot;font-size: 15px;&quot;&gt;Realiza&lt;/span&gt;" style="edgeLabel;html=1;align=center;verticalAlign=middle;resizable=0;points=[];" vertex="1" connectable="0" parent="keiCmi9gTDB518gkM9KE-94">
          <mxGeometry x="0.0014" y="-4" relative="1" as="geometry">
            <mxPoint x="-4" y="-4" as="offset" />
          </mxGeometry>
        </mxCell>
        <mxCell id="keiCmi9gTDB518gkM9KE-98" style="edgeStyle=orthogonalEdgeStyle;rounded=0;orthogonalLoop=1;jettySize=auto;html=1;entryX=0;entryY=0;entryDx=0;entryDy=0;" edge="1" parent="1" source="keiCmi9gTDB518gkM9KE-97" target="keiCmi9gTDB518gkM9KE-85">
          <mxGeometry relative="1" as="geometry" />
        </mxCell>
        <mxCell id="keiCmi9gTDB518gkM9KE-97" value="ID&lt;br&gt;Coment" style="ellipse;whiteSpace=wrap;html=1;aspect=fixed;" vertex="1" parent="1">
          <mxGeometry x="310" y="50" width="40" height="40" as="geometry" />
        </mxCell>
        <mxCell id="keiCmi9gTDB518gkM9KE-100" style="edgeStyle=orthogonalEdgeStyle;rounded=0;orthogonalLoop=1;jettySize=auto;html=1;entryX=1;entryY=0;entryDx=0;entryDy=0;" edge="1" parent="1" source="keiCmi9gTDB518gkM9KE-99" target="keiCmi9gTDB518gkM9KE-85">
          <mxGeometry relative="1" as="geometry" />
        </mxCell>
        <mxCell id="keiCmi9gTDB518gkM9KE-99" value="ID&lt;br&gt;Quiz" style="ellipse;whiteSpace=wrap;html=1;aspect=fixed;" vertex="1" parent="1">
          <mxGeometry x="470" y="50" width="40" height="40" as="geometry" />
        </mxCell>
        <mxCell id="keiCmi9gTDB518gkM9KE-102" style="edgeStyle=orthogonalEdgeStyle;rounded=0;orthogonalLoop=1;jettySize=auto;html=1;entryX=0.25;entryY=0;entryDx=0;entryDy=0;" edge="1" parent="1" source="keiCmi9gTDB518gkM9KE-101" target="keiCmi9gTDB518gkM9KE-85">
          <mxGeometry relative="1" as="geometry" />
        </mxCell>
        <mxCell id="keiCmi9gTDB518gkM9KE-101" value="ID&lt;br&gt;Usu" style="ellipse;whiteSpace=wrap;html=1;aspect=fixed;" vertex="1" parent="1">
          <mxGeometry x="360" y="50" width="40" height="40" as="geometry" />
        </mxCell>
        <mxCell id="keiCmi9gTDB518gkM9KE-104" style="edgeStyle=orthogonalEdgeStyle;rounded=0;orthogonalLoop=1;jettySize=auto;html=1;exitX=0.5;exitY=1;exitDx=0;exitDy=0;entryX=0.75;entryY=0;entryDx=0;entryDy=0;" edge="1" parent="1" source="keiCmi9gTDB518gkM9KE-103" target="keiCmi9gTDB518gkM9KE-85">
          <mxGeometry relative="1" as="geometry" />
        </mxCell>
        <mxCell id="keiCmi9gTDB518gkM9KE-103" value="Texto&lt;br&gt;Coment" style="ellipse;whiteSpace=wrap;html=1;aspect=fixed;" vertex="1" parent="1">
          <mxGeometry x="420" y="50" width="40" height="40" as="geometry" />
        </mxCell>
        <mxCell id="keiCmi9gTDB518gkM9KE-105" value="(1,n)" style="text;html=1;align=center;verticalAlign=middle;resizable=0;points=[];autosize=1;strokeColor=none;fillColor=none;" vertex="1" parent="1">
          <mxGeometry x="235" y="210" width="50" height="30" as="geometry" />
        </mxCell>
        <mxCell id="keiCmi9gTDB518gkM9KE-106" value="(1,1)" style="text;html=1;align=center;verticalAlign=middle;resizable=0;points=[];autosize=1;strokeColor=none;fillColor=none;" vertex="1" parent="1">
          <mxGeometry x="190" y="300" width="50" height="30" as="geometry" />
        </mxCell>
        <mxCell id="keiCmi9gTDB518gkM9KE-107" value="(1,n)" style="text;html=1;align=center;verticalAlign=middle;resizable=0;points=[];autosize=1;strokeColor=none;fillColor=none;" vertex="1" parent="1">
          <mxGeometry x="665" y="295" width="50" height="30" as="geometry" />
        </mxCell>
        <mxCell id="keiCmi9gTDB518gkM9KE-108" value="(1,n)" style="text;html=1;align=center;verticalAlign=middle;resizable=0;points=[];autosize=1;strokeColor=none;fillColor=none;" vertex="1" parent="1">
          <mxGeometry x="667.5" y="525" width="50" height="30" as="geometry" />
        </mxCell>
        <mxCell id="keiCmi9gTDB518gkM9KE-109" value="(1,1)" style="text;html=1;align=center;verticalAlign=middle;resizable=0;points=[];autosize=1;strokeColor=none;fillColor=none;" vertex="1" parent="1">
          <mxGeometry x="175" y="518" width="50" height="30" as="geometry" />
        </mxCell>
        <mxCell id="keiCmi9gTDB518gkM9KE-111" value="(1,n)" style="text;html=1;align=center;verticalAlign=middle;resizable=0;points=[];autosize=1;strokeColor=none;fillColor=none;" vertex="1" parent="1">
          <mxGeometry x="105" y="188" width="50" height="30" as="geometry" />
        </mxCell>
        <mxCell id="keiCmi9gTDB518gkM9KE-112" value="(1,1)" style="text;html=1;align=center;verticalAlign=middle;resizable=0;points=[];autosize=1;strokeColor=none;fillColor=none;" vertex="1" parent="1">
          <mxGeometry x="300" y="140" width="50" height="30" as="geometry" />
        </mxCell>
        <mxCell id="keiCmi9gTDB518gkM9KE-113" value="(1,n)" style="text;html=1;align=center;verticalAlign=middle;resizable=0;points=[];autosize=1;strokeColor=none;fillColor=none;" vertex="1" parent="1">
          <mxGeometry x="665" y="185" width="50" height="30" as="geometry" />
        </mxCell>
        <mxCell id="keiCmi9gTDB518gkM9KE-114" value="(1,1)" style="text;html=1;align=center;verticalAlign=middle;resizable=0;points=[];autosize=1;strokeColor=none;fillColor=none;" vertex="1" parent="1">
          <mxGeometry x="665" y="418" width="50" height="30" as="geometry" />
        </mxCell>
        <mxCell id="keiCmi9gTDB518gkM9KE-115" value="(1,n)" style="text;html=1;align=center;verticalAlign=middle;resizable=0;points=[];autosize=1;strokeColor=none;fillColor=none;" vertex="1" parent="1">
          <mxGeometry x="667.5" y="611.25" width="50" height="30" as="geometry" />
        </mxCell>
        <mxCell id="keiCmi9gTDB518gkM9KE-116" value="(1,1)" style="text;html=1;align=center;verticalAlign=middle;resizable=0;points=[];autosize=1;strokeColor=none;fillColor=none;" vertex="1" parent="1">
          <mxGeometry x="470" y="138" width="50" height="30" as="geometry" />
        </mxCell>
        <mxCell id="keiCmi9gTDB518gkM9KE-117" value="(1,1)" style="text;html=1;align=center;verticalAlign=middle;resizable=0;points=[];autosize=1;strokeColor=none;fillColor=none;" vertex="1" parent="1">
          <mxGeometry x="175" y="611.25" width="50" height="30" as="geometry" />
        </mxCell>
        <mxCell id="keiCmi9gTDB518gkM9KE-118" value="(1,n)" style="text;html=1;align=center;verticalAlign=middle;resizable=0;points=[];autosize=1;strokeColor=none;fillColor=none;" vertex="1" parent="1">
          <mxGeometry x="190" y="415" width="50" height="30" as="geometry" />
        </mxCell>
        <mxCell id="keiCmi9gTDB518gkM9KE-121" value="(1,1)" style="text;html=1;align=center;verticalAlign=middle;resizable=0;points=[];autosize=1;strokeColor=none;fillColor=none;" vertex="1" parent="1">
          <mxGeometry x="525" y="218" width="50" height="30" as="geometry" />
        </mxCell>
        <mxCell id="keiCmi9gTDB518gkM9KE-123" style="edgeStyle=orthogonalEdgeStyle;rounded=0;orthogonalLoop=1;jettySize=auto;html=1;entryX=0.75;entryY=1;entryDx=0;entryDy=0;" edge="1" parent="1" source="keiCmi9gTDB518gkM9KE-122" target="keiCmi9gTDB518gkM9KE-44">
          <mxGeometry relative="1" as="geometry" />
        </mxCell>
        <mxCell id="keiCmi9gTDB518gkM9KE-122" value="ID&lt;br&gt;Usu" style="ellipse;whiteSpace=wrap;html=1;aspect=fixed;" vertex="1" parent="1">
          <mxGeometry x="650" y="748.75" width="40" height="40" as="geometry" />
        </mxCell>
      </root>
    </mxGraphModel>
  </diagram>
</mxfile>
